<?xml version="1.0" encoding="UTF-8" standalone="no"?>
<!-- Created with Inkscape (http://www.inkscape.org/) -->

<svg
   width="614.13605mm"
   height="396.45422mm"
   viewBox="0 0 614.13604 396.45422"
   version="1.1"
   id="svg1"
   inkscape:version="1.4.4 (unknown)"
   sodipodi:docname="ascii-borealis.svg"
   xmlns:inkscape="http://www.inkscape.org/namespaces/inkscape"
   xmlns:sodipodi="http://sodipodi.sourceforge.net/DTD/sodipodi-0.dtd"
   xmlns:xlink="http://www.w3.org/1999/xlink"
   xmlns="http://www.w3.org/2000/svg"
   xmlns:svg="http://www.w3.org/2000/svg">
  <sodipodi:namedview
     id="namedview1"
     pagecolor="#ffffff"
     bordercolor="#000000"
     borderopacity="0.25"
     inkscape:showpageshadow="2"
     inkscape:pageopacity="0.0"
     inkscape:pagecheckerboard="0"
     inkscape:deskcolor="#d1d1d1"
     inkscape:document-units="mm"
     inkscape:zoom="0.50000001"
     inkscape:cx="108"
     inkscape:cy="1073"
     inkscape:window-width="1692"
     inkscape:window-height="1052"
     inkscape:window-x="0"
     inkscape:window-y="0"
     inkscape:window-maximized="1"
     inkscape:current-layer="layer1" />
  <defs
     id="defs1">
    <linearGradient
       id="linearGradient152"
       inkscape:collect="always">
      <stop
         style="stop-color:#ffd400;stop-opacity:0.74892426;"
         offset="0"
         id="stop151" />
      <stop
         style="stop-color:#7f6a00;stop-opacity:1;"
         offset="0.27390257"
         id="stop153" />
      <stop
         style="stop-color:#704200;stop-opacity:0.49803922;"
         offset="0.63695127"
         id="stop154" />
      <stop
         style="stop-color:#611a00;stop-opacity:0;"
         offset="1"
         id="stop152" />
    </linearGradient>
    <linearGradient
       id="linearGradient147"
       inkscape:collect="always">
      <stop
         style="stop-color:#820262;stop-opacity:1;"
         offset="0"
         id="stop148" />
      <stop
         style="stop-color:#4a0e47;stop-opacity:1;"
         offset="0.5"
         id="stop155" />
      <stop
         style="stop-color:#230a35;stop-opacity:0.64620662;"
         offset="1"
         id="stop147" />
    </linearGradient>
    <linearGradient
       id="linearGradient144"
       inkscape:collect="always">
      <stop
         style="stop-color:#372549;stop-opacity:1;"
         offset="0"
         id="stop145" />
      <stop
         style="stop-color:#d90367;stop-opacity:1;"
         offset="0.5"
         id="stop149" />
      <stop
         style="stop-color:#eadeda;stop-opacity:1;"
         offset="1"
         id="stop146" />
    </linearGradient>
    <linearGradient
       id="linearGradient142"
       inkscape:collect="always">
      <stop
         style="stop-color:#7c2744;stop-opacity:1;"
         offset="0"
         id="stop143" />
      <stop
         style="stop-color:#62bede;stop-opacity:1;"
         offset="0.49784437"
         id="stop144" />
      <stop
         style="stop-color:#2e7c27;stop-opacity:1;"
         offset="1"
         id="stop142" />
    </linearGradient>
    <linearGradient
       id="linearGradient135"
       inkscape:swatch="gradient">
      <stop
         style="stop-color:#8b94ee;stop-opacity:1;"
         offset="0"
         id="stop135" />
      <stop
         style="stop-color:#8b94ee;stop-opacity:0;"
         offset="1"
         id="stop136" />
    </linearGradient>
    <linearGradient
       id="linearGradient79"
       inkscape:collect="always">
      <stop
         style="stop-color:#2e294e;stop-opacity:1;"
         offset="0.3786779"
         id="stop81" />
      <stop
         style="stop-color:#000000;stop-opacity:1;"
         offset="1"
         id="stop80" />
    </linearGradient>
    <linearGradient
       id="linearGradient73"
       inkscape:collect="always">
      <stop
         style="stop-color:#9fffa9;stop-opacity:1;"
         offset="0"
         id="stop73" />
      <stop
         style="stop-color:#8eecf5;stop-opacity:1;"
         offset="0.18546195"
         id="stop75" />
      <stop
         style="stop-color:#91baf3;stop-opacity:1;"
         offset="0.35780075"
         id="stop76" />
      <stop
         style="stop-color:#c1bded;stop-opacity:1;"
         offset="0.54970992"
         id="stop77" />
      <stop
         style="stop-color:#d9beea;stop-opacity:1;"
         offset="0.76120925"
         id="stop78" />
      <stop
         style="stop-color:#ffcfd2;stop-opacity:1;"
         offset="1"
         id="stop74" />
    </linearGradient>
    <linearGradient
       inkscape:collect="always"
       xlink:href="#linearGradient73"
       id="linearGradient74"
       x1="41.938381"
       y1="88.138832"
       x2="188.34407"
       y2="88.138832"
       gradientUnits="userSpaceOnUse"
       gradientTransform="translate(-17.858488,-17.538309)" />
    <linearGradient
       inkscape:collect="always"
       xlink:href="#linearGradient79"
       id="linearGradient80"
       x1="75.934044"
       y1="150.94128"
       x2="115.17297"
       y2="1.2658504"
       gradientUnits="userSpaceOnUse"
       gradientTransform="translate(-1.24663,-11.848667)" />
    <filter
       inkscape:collect="always"
       style="color-interpolation-filters:sRGB"
       id="filter141"
       x="-0.075605297"
       y="-0.70786141"
       width="1.1512106"
       height="2.4157228">
      <feGaussianBlur
         inkscape:collect="always"
         stdDeviation="5.0252165"
         id="feGaussianBlur141" />
    </filter>
    <linearGradient
       inkscape:collect="always"
       xlink:href="#linearGradient142"
       id="linearGradient143"
       x1="133.9601"
       y1="99.893173"
       x2="177.64435"
       y2="23.560997"
       gradientUnits="userSpaceOnUse"
       gradientTransform="translate(-0.74835467)" />
    <linearGradient
       inkscape:collect="always"
       xlink:href="#linearGradient144"
       id="linearGradient146"
       x1="76.804947"
       y1="17.201281"
       x2="140.62672"
       y2="112.24232"
       gradientUnits="userSpaceOnUse"
       gradientTransform="translate(3.367596,-12.347852)" />
    <linearGradient
       inkscape:collect="always"
       xlink:href="#linearGradient147"
       id="linearGradient148"
       x1="33.945488"
       y1="13.992846"
       x2="116.94864"
       y2="107.35009"
       gradientUnits="userSpaceOnUse"
       gradientTransform="translate(2.245064,-12.160763)" />
    <radialGradient
       inkscape:collect="always"
       xlink:href="#linearGradient152"
       id="radialGradient153"
       cx="66.69072"
       cy="133.10123"
       fx="66.69072"
       fy="133.10123"
       r="76.767006"
       gradientTransform="matrix(2.7976236,0.20040103,-0.02399508,0.33497421,-113.16389,53.18632)"
       gradientUnits="userSpaceOnUse" />
    <filter
       inkscape:collect="always"
       style="color-interpolation-filters:sRGB"
       id="filter155"
       x="-0.30247828"
       y="-0.27942313"
       width="1.6049566"
       height="1.5588463">
      <feGaussianBlur
         inkscape:collect="always"
         stdDeviation="10.095023"
         id="feGaussianBlur155" />
    </filter>
    <filter
       inkscape:collect="always"
       style="color-interpolation-filters:sRGB"
       id="filter156"
       x="-0.1284426"
       y="-0.12732268"
       width="1.2568852"
       height="1.2546454">
      <feGaussianBlur
         inkscape:collect="always"
         stdDeviation="4.4599938"
         id="feGaussianBlur156" />
    </filter>
    <filter
       inkscape:collect="always"
       style="color-interpolation-filters:sRGB"
       id="filter157"
       x="-0.24069732"
       y="-0.14009029"
       width="1.4813946"
       height="1.2801806">
      <feGaussianBlur
         inkscape:collect="always"
         stdDeviation="5.401348"
         id="feGaussianBlur157" />
    </filter>
    <linearGradient
       inkscape:collect="always"
       xlink:href="#linearGradient73"
       id="linearGradient75"
       gradientUnits="userSpaceOnUse"
       gradientTransform="translate(-17.687983,70.212954)"
       x1="41.938381"
       y1="88.138832"
       x2="188.34407"
       y2="88.138832" />
  </defs>
  <g
     inkscape:groupmode="layer"
     id="layer2"
     inkscape:label="back"
     transform="matrix(4,0,0,4,-77.076416,-36.780327)">
    <rect
       style="display:inline;opacity:1;fill:url(#linearGradient80);stroke:none;stroke-width:0.192293;stroke-opacity:1"
       id="rect78"
       width="153.53401"
       height="99.113556"
       x="19.269104"
       y="9.1950817"
       inkscape:label="background" />
    <rect
       style="display:inline;mix-blend-mode:normal;fill:url(#radialGradient153);stroke:none;stroke-width:0.192293;stroke-opacity:1"
       id="rect78-1"
       width="153.53401"
       height="99.113556"
       x="19.269104"
       y="9.1950817"
       inkscape:label="city-lights" />
    <g
       inkscape:groupmode="layer"
       id="layer3"
       inkscape:label="swoosh"
       transform="translate(-4.11797)"
       style="display:inline">
      <path
         style="display:inline;opacity:1;mix-blend-mode:saturation;fill:url(#linearGradient148);fill-opacity:1;stroke:none;stroke-width:0.165;stroke-opacity:1;filter:url(#filter156)"
         id="path86"
         d="m 36.406246,10.786693 c 0.04664,0.128933 0.07242,0.267458 0.139922,0.3868 0.09775,0.172819 0.226944,0.326224 0.351047,0.481209 0.155352,0.194013 0.303884,0.396492 0.48664,0.564941 0.664556,0.612529 1.471427,0.9658 2.289773,1.31357 0.241816,0.08065 0.481928,0.166592 0.725445,0.241952 0.212082,0.06563 0.424799,0.130368 0.640977,0.180914 0.116832,0.02732 0.238434,0.02896 0.356142,0.05223 0.103156,0.02039 0.201187,0.06544 0.305515,0.07857 0.373311,0.047 -0.130736,-0.16242 0.339412,0.07717 0.09507,0.07603 0.197089,0.144101 0.285213,0.22808 0.349142,0.332716 0.624369,0.74282 0.963965,1.086599 0.532624,0.539189 0.512529,0.483081 1.171241,0.980874 0.245624,0.139181 0.486,0.288062 0.73687,0.417547 0.671068,0.346363 0.490104,0.155956 1.072237,0.564247 1.32977,0.932662 -0.03447,0.03001 1.302526,1.106911 0.294266,0.237025 0.615203,0.438883 0.922805,0.658323 0.936334,0.521896 0.906876,0.546161 1.90953,0.941155 0.279882,0.11026 0.574638,0.181152 0.851786,0.298106 0.265658,0.112107 0.513287,0.263028 0.773298,0.387673 0.726948,0.348498 0.99377,0.454144 1.722408,0.766431 0.239697,0.119582 0.481158,0.235686 0.719088,0.358746 0.325469,0.168336 1.37836,0.74268 1.68257,0.893967 0.998656,0.496641 2.028528,0.935111 3.040298,1.404172 2.089218,0.896348 4.276695,1.568974 6.494769,2.060941 1.514904,0.3996 3.001092,0.882274 4.443796,1.493244 0.245126,0.129397 0.492215,0.255141 0.735378,0.388192 0.272505,0.149103 0.533778,0.318981 0.811471,0.458187 0.638924,0.320286 1.066605,0.445108 1.71028,0.737854 0.527992,0.24013 1.044014,0.505952 1.57108,0.748112 1.954356,1.347851 4.224851,2.039188 6.479313,2.692667 1.811382,0.906486 3.657221,1.766401 5.648457,2.194227 0.313864,0.06743 0.633881,0.102121 0.95082,0.15318 0.257336,0.143206 0.509593,0.295942 0.772009,0.429615 1.113771,0.567346 0.454266,0.154855 1.500701,0.719859 0.823587,0.444683 1.633458,0.9231 2.447986,1.384652 0.287909,0.175946 1.247486,0.752197 1.565822,0.981456 0.224941,0.161994 0.431001,0.348766 0.649814,0.518946 0.611346,0.475472 1.236194,0.932648 1.846043,1.410232 0.127802,0.188828 0.244017,0.386043 0.383408,0.566483 0.164835,0.213379 0.368797,0.395219 0.527754,0.613013 0.487973,0.668605 0.480676,0.935104 1.020188,1.629696 0.184507,0.237546 0.431572,0.419796 0.631849,0.644205 0.175604,0.196763 0.329578,0.411808 0.494366,0.617712 0.157302,0.193093 0.306672,0.392941 0.471922,0.579284 0.49164,0.554411 0.35586,0.278114 0.73159,0.844002 0.30601,0.460891 0.31664,0.566664 0.59994,1.064382 0.13036,0.22901 0.27105,0.451988 0.40657,0.677982 0.30886,0.478274 0.71308,0.91373 0.97639,1.422132 0.27954,0.539761 0.39466,1.206154 0.53846,1.783329 0.31132,0.771824 0.72768,1.519883 1.25973,2.164239 0.009,0.0105 0.44915,0.410078 0.47461,0.494025 0.009,0.02999 -0.0551,0.02998 -0.0826,0.04497 -0.15787,0.629546 -0.20331,1.30225 -0.22338,1.951643 -0.0219,0.709462 0.0713,0.302842 -0.0633,0.762415 -0.4572,0.304636 -0.12817,0.05737 -0.64407,0.571519 -0.37508,0.373819 -0.49498,0.426267 -0.82907,0.875408 -0.33028,0.444 -0.42841,0.69578 -0.67113,1.185154 -0.24927,0.2839 -0.29749,0.699338 -0.53007,0.994227 -0.11651,0.147727 -0.63653,0.499375 -0.76264,0.588589 -0.6332,0.447937 -0.41113,0.29287 -1.03935,0.718894 -0.47988,0.366276 -0.880525,0.82132 -1.33863,1.211662 -0.240171,0.204642 -0.505259,0.378508 -0.748319,0.579708 -0.74486,0.616582 -1.463807,1.270082 -2.20296,1.894268 -0.507897,0.334733 -0.96897,0.736701 -1.475793,1.072896 -0.929524,0.616588 -0.994201,0.510577 -1.848636,1.276766 -0.888076,0.796356 -0.952741,0.980408 -1.630341,1.906463 -0.810091,1.469014 -1.373809,3.089478 -1.510364,4.770318 -0.04641,0.571233 0.0046,1.427903 0.02894,2.013831 0.02482,0.85925 0.125923,1.712635 0.263877,2.560336 0.140502,0.863354 0.1715,1.249836 0.532389,2.052696 0.140478,0.312523 0.335548,0.597519 0.50332,0.896278 0.716153,0.930921 1.425554,1.882262 2.276851,2.697541 0.718894,0.688478 1.855258,0.381532 2.633884,0.999577 1.075899,0.839798 2.657319,0.91083 3.821031,1.62256 0.514431,0.31463 2.528841,0.602784 3.069781,0.86926 1.26443,0.62289 2.63876,0.3816 3.98462,0.7407 1.32111,0.19118 0.83285,0.074 2.15933,0.21046 0.51074,-0.0637 2.83891,-0.30387 3.18582,-0.28968 0.41481,0.017 2.19476,-0.24444 2.61765,-0.28634 0.35652,-0.14055 2.649,-0.0237 4.54548,-1.183441 0.16486,-0.100814 0.60432,-0.855273 0.15859,-1.240253 -0.0945,-0.08162 -0.57145,-0.242853 -0.76046,-0.330121 -0.10556,-0.04874 -0.96034,0.03457 -1.06312,-0.01979 -0.16802,-0.08886 -0.72052,-0.28071 -0.87795,-0.387205 -0.40867,-0.213704 -0.35098,0.03782 -0.81795,-0.259388 -0.21354,-0.135911 -0.39032,-0.322805 -0.59411,-0.472958 -0.59134,-0.435708 -1.22331,-0.750912 -1.88336,-1.06675 -0.34929,-0.148373 -0.68969,-0.31931 -1.04709,-0.446892 -0.17796,-0.06353 -0.368,-0.09011 -0.54462,-0.157239 -0.8435,-0.320604 -1.52299,-0.927441 -2.29578,-1.37559 -0.88732,-0.427913 -1.78828,-0.893215 -2.72538,-1.20559 -0.55101,-0.183676 -1.12592,-0.28667 -1.68389,-0.447984 -0.53618,-0.155014 -1.05631,-0.365305 -1.59776,-0.500777 -0.83806,-0.20969 -1.72061,-0.217128 -2.53679,-0.530596 -0.32053,-0.0627 -0.64058,-0.127867 -0.96158,-0.188108 -0.230911,-0.04333 -0.459161,-0.125881 -0.69408,-0.122597 -0.415025,0.0058 -0.402738,0.574561 -0.10437,0.730874 0.05929,0.03106 0.0456,-0.125851 0.0684,-0.188777 -0.05706,-0.518367 -0.03054,-0.514771 -0.23022,-1.072468 -0.07824,-0.218532 -0.19269,-0.422902 -0.271719,-0.641151 -0.22964,-0.634196 -0.373898,-1.300559 -0.578813,-1.942597 -0.08589,-0.23013 -0.151633,-0.468826 -0.216651,-0.455242 -0.08727,0.01823 -0.171498,0.388826 -0.159544,0.455072 0.03629,0.201147 0.661815,0.224547 0.613074,-0.01151 0.800203,-0.440206 1.560073,-0.913675 2.269333,-1.495541 0.31723,-0.26025 0.6058,-0.55376 0.91635,-0.82195 1.70215,-1.469977 0.22896,-0.09741 1.85765,-1.660138 0.39995,-0.411322 1.11476,-1.140156 1.50117,-1.562899 0.73532,-0.804466 1.32429,-1.732235 2.15938,-2.444134 0.72057,-0.777708 0.50338,-0.506002 1.11007,-1.29512 0.0384,-0.04997 0.8361,-1.112318 0.89625,-1.177348 0.0603,-0.06522 0.89624,-0.773723 0.95382,-0.822767 0.56229,-0.481927 0.8197,-0.656896 1.29201,-1.277829 0.98571,-1.295894 1.54756,-2.825032 1.82542,-4.416935 0.13127,-0.569902 0.30198,-1.131589 0.40208,-1.707782 0.20923,-1.204328 0.11553,-2.424571 0.0285,-3.634841 -0.094,-0.461232 -0.33038,-1.6251 -0.43804,-2.142974 -0.0624,-0.300006 -0.10606,-0.604666 -0.18941,-0.89953 -0.24403,-0.863349 -0.64633,-1.683901 -1.15858,-2.417366 -0.20234,-0.219411 -0.42046,-0.425246 -0.607,-0.658233 -0.17881,-0.223343 -0.32323,-0.472181 -0.48629,-0.707274 -0.27689,-0.399221 -0.54333,-0.805661 -0.82249,-1.203301 -0.083,-0.118176 -0.18261,-0.224277 -0.26281,-0.344347 -0.0729,-0.109056 -0.13023,-0.22769 -0.19534,-0.341535 -0.3981,-0.620868 -0.6758,-1.297763 -0.91247,-1.995657 -0.0844,-0.248848 -0.1392,-0.507463 -0.2306,-0.753824 -0.10284,-0.277228 -0.23415,-0.543047 -0.35123,-0.814567 -0.1492,-0.301559 -0.30439,-0.600224 -0.4476,-0.904674 -0.15021,-0.319366 -0.25155,-0.663411 -0.4325,-0.966425 -0.19214,-0.321757 -0.45264,-0.597408 -0.67949,-0.895718 -0.25664,-0.337497 -0.51703,-0.672166 -0.77098,-1.011701 -1.06597,-1.425225 -0.33597,-0.586173 -1.66847,-1.950209 -0.64072,-0.717365 -0.88411,-1.031809 -1.61509,-1.67585 -1.0727,-0.945115 -2.32409,-1.648634 -3.535348,-2.395775 -0.822589,-0.581001 -1.651748,-1.145482 -2.492031,-1.700562 -0.742354,-0.490389 -1.304263,-0.904174 -2.109028,-1.288738 -0.369086,-0.176368 -0.759288,-0.304636 -1.13893,-0.456954 -0.285412,-0.199747 -0.560663,-0.414858 -0.856232,-0.599241 -1.851496,-1.155012 -3.96553,-1.744342 -6.048348,-2.325079 -2.004219,-0.767607 -4.049699,-1.428131 -6.15837,-1.845789 -0.401386,-0.168981 -1.300478,-0.546399 -1.675419,-0.709136 -0.484542,-0.210312 -0.959326,-0.443235 -1.44808,-0.64357 -0.259559,-0.106389 -0.528029,-0.190267 -0.786882,-0.298363 -0.25982,-0.1085 -0.512191,-0.234047 -0.768289,-0.351073 -1.75538,-0.963535 -3.511711,-1.976239 -5.450662,-2.525747 -1.86757,-0.675081 -3.741444,-1.33246 -5.614527,-1.992362 -3.135112,-1.007875 1.05524,0.352456 -2.05149,-0.698966 -0.279897,-0.09473 -0.566475,-0.168939 -0.846203,-0.264173 -0.928127,-0.315984 -1.838084,-0.686694 -2.750463,-1.04439 C 58.054956,13.727629 57.287857,13.471624 56.60958,13.099384 56.376016,12.971204 56.167233,12.802061 55.940504,12.662148 55.285747,12.258101 55.129196,12.199109 54.414898,11.837311 53.633112,11.545003 52.787742,11.311729 52.053309,10.908378 51.342178,10.517824 51.410025,10.453452 50.760282,10.038741 50.58602,9.9275156 50.399666,9.8364836 50.219358,9.7353556 49.598135,9.4677596 48.98618,9.1814536 48.342896,8.9692546 c -0.160536,-0.05296 -0.324311,-0.09554 -0.486466,-0.143309 -0.110313,-0.02875 -0.22243,-0.05129 -0.330938,-0.08624 -0.05989,-0.01929 -0.115181,-0.05066 -0.172773,-0.07599 -0.661268,-0.575874 -1.223806,-1.255842 -1.823458,-1.89263 -0.184132,-0.162564 -0.358886,-0.336408 -0.552392,-0.487693 -1.165302,-0.911051 -2.576653,-1.486636 -4.060671,-1.544091 -0.427617,-0.318905 -4.93762,5.7285014 -4.510003,6.0474074 z"
         inkscape:label="leftpath"
         sodipodi:nodetypes="cssscsssccsscssscssccsscccsssccscsscsscsssscssscsccccccsscsscsscsscscsscscssccccsssscsscsscssscssscsscsscsscscsscscsccscsscccsscsssscscsscsccssscccsscsscsscscscccccc" />
      <path
         style="display:inline;opacity:0.707939;mix-blend-mode:normal;fill:url(#linearGradient146);stroke:none;stroke-width:0.165;stroke-opacity:1;filter:url(#filter155)"
         id="path87"
         d="m 75.895321,9.0414089 c 0.106675,0.231032 0.18142,0.479685 0.320022,0.693095 0.610666,0.9402491 1.542962,1.5189811 2.548234,1.9596801 0.342294,0.150057 0.703431,0.253409 1.049636,0.394209 0.321678,0.130826 0.635484,0.280233 0.953228,0.420349 0.30172,0.08759 0.606102,0.166487 0.90516,0.262777 0.679707,0.218853 1.040466,0.396489 1.727523,0.608911 0.935604,0.289268 1.892456,0.526159 2.848311,0.736404 0.277569,0.117274 0.551974,0.242334 0.832707,0.351819 0.326438,0.127309 0.653508,0.254614 0.98819,0.358328 0.958003,0.296873 1.960353,0.437144 2.92336,0.712872 0.322816,0.09243 0.63568,0.216619 0.953519,0.324929 0.327395,0.111501 0.667969,0.189963 0.982181,0.3345 0.963136,0.443037 1.677754,1.026125 2.590974,1.572926 1.085043,0.649685 2.117024,1.184162 3.294841,1.653112 0.58829,0.23423 1.196753,0.414224 1.795133,0.621334 4.0683,1.182862 -0.39915,-0.06141 3.38919,0.839602 0.46429,0.110429 0.91631,0.267769 1.3781,0.388221 1.12155,0.292536 2.26086,0.520798 3.38867,0.787979 0.84761,0.191408 0.86353,0.197551 1.61443,0.359355 0.16511,0.03558 0.35285,0.01508 0.49567,0.105243 0.16109,0.101711 0.2434,0.293169 0.36614,0.438883 0.19811,0.235204 0.39184,0.474242 0.5964,0.70386 0.28874,0.324112 0.58878,0.637982 0.88316,0.956972 1.07508,1.00552 1.0784,1.088054 2.3088,1.917618 0.3996,0.269417 0.83169,0.488153 1.23307,0.754906 0.37385,0.248457 0.71984,0.536935 1.09088,0.789575 1.94673,1.325533 0.27917,0.04146 2.07588,1.488623 0.32078,0.306623 0.64157,0.613248 0.96235,0.919871 0.33921,0.352266 0.66685,0.716045 1.01762,1.056804 0.3697,0.359159 0.77192,0.683744 1.14265,1.041842 0.39379,0.380365 0.74969,0.799214 1.15003,1.172681 0.78502,0.732327 1.60616,1.336358 2.45338,1.991381 1.66501,1.098301 0.70733,0.515358 2.30094,1.394688 0.55104,0.304054 1.11693,0.549531 1.5216,1.059211 0.4138,0.521177 1.31408,2.40007 1.50125,2.769217 0.94674,1.295363 2.03233,2.877873 3.16976,4.005876 0.66538,0.659866 1.3888,1.265735 2.1545,1.805969 1.19074,0.840118 3.16459,1.834028 4.5527,2.357118 0.61889,0.233217 1.2684,0.375298 1.90259,0.562948 0.8657,0.402577 1.94641,0.08098 2.78315,0.567312 0.16167,0.09397 0.28747,0.239281 0.43361,0.355954 0.13744,0.109728 0.73152,0.566082 0.87635,0.677567 0.13611,0.08043 0.25392,0.207383 0.40834,0.241276 0.29559,0.06488 0.0276,-0.873713 -0.19304,-0.549352 -0.0805,0.118285 -0.1143,0.262281 -0.17145,0.393422 -0.27943,0.898303 -0.73941,1.205069 -1.55817,1.618152 -0.50422,0.172217 -0.82365,0.659765 -1.3354,0.815515 -0.1956,0.05953 -0.40537,0.05402 -0.60735,0.08582 -0.79088,0.124513 -0.77245,0.131347 -1.56318,0.297804 -0.3117,0.05455 -0.62691,0.09183 -0.93509,0.163642 -0.34851,0.08121 -0.68168,0.2231 -1.03227,0.294791 -0.53444,0.109281 -1.36723,0.120793 -1.89854,0.13172 -0.66706,0.01373 -1.60362,0.01355 -2.27132,0.0155 -1.22006,0.04049 -2.44232,0.132919 -3.6489,0.324136 -0.37842,0.05997 -0.75201,0.147595 -1.12977,0.211555 -0.48543,0.0822 -0.97829,0.122735 -1.45949,0.226862 -0.45331,0.09809 -0.89259,0.252457 -1.33889,0.378687 -1.22747,0.424924 -1.34931,0.438256 -2.60098,1.004052 -0.46117,0.208465 -0.89769,0.470977 -1.36623,0.662294 -0.4393,0.17938 -0.90243,0.29386 -1.35142,0.447395 -2.07658,0.710091 -0.75146,0.351081 -2.95511,0.840668 -0.55877,0.147188 -1.12926,0.255466 -1.6763,0.441566 -1.86106,0.633127 -3.90464,1.806181 -5.25106,3.259132 -0.32178,0.347242 -0.57999,0.748393 -0.86999,1.12259 -0.91971,1.415812 -1.10938,1.471504 -1.56383,3.136472 -0.16899,0.619148 -0.22044,1.666679 -0.26618,2.327769 -0.0588,0.850741 -0.0483,0.717024 -0.0931,1.56903 -0.0206,0.208642 -0.0366,0.41779 -0.0617,0.62593 -0.0958,0.792861 -0.18373,1.505521 -0.12203,2.310487 0.0179,0.233807 0.0679,0.464116 0.0948,0.697061 0.0328,0.284117 0.0563,0.569245 0.0844,0.853868 0.10501,1.931189 0.61421,3.575029 1.73357,5.160452 0.71744,1.016138 1.1526,1.376794 2.04097,2.274358 1.13732,1.0614 2.3091,2.111751 3.60701,2.977642 1.21817,0.812702 2.55013,1.475346 3.85037,2.143342 21.95319,4.60018 17.97884,-0.269605 16.8232,-1.513282 -1.21328,-1.237466 -1.42479,-1.613841 -3.02962,-2.513353 -0.64995,-0.364302 -1.37133,-0.584542 -2.04232,-0.90845 -1.65729,-0.80002 -3.22658,-1.75773 -4.63768,-2.943698 -1.0925,-0.853795 -1.44001,-1.17656 -2.65544,-1.907305 -1.06189,-0.638439 -1.65478,-0.873763 -2.79512,-1.34262 -0.42866,-0.176244 -0.85476,-0.360484 -1.29307,-0.511109 -0.31508,-0.108275 -0.64257,-0.176318 -0.96385,-0.264475 -0.6359,-0.150273 -0.50514,-0.06978 -1.04886,-0.380058 -0.0258,-0.01471 -0.61415,-0.405558 -0.70824,-0.414544 -0.0862,-0.0082 -0.14707,0.11716 -0.23354,0.113485 -0.0528,-0.0021 -0.063,-0.08495 -0.0944,-0.127423 0.0892,-0.630949 0.0275,-0.270235 0.20709,-1.078148 0.18306,-1.147376 0.0829,-2.29889 0.009,-3.45009 -0.0185,-0.149513 -0.0994,-1.254358 -0.18476,-1.381117 -0.0193,-0.02862 -0.006,0.06946 -0.0181,0.101941 -0.0601,0.1674 -0.13882,0.327817 -0.19648,0.496062 -0.0418,0.121965 -0.0676,0.248833 -0.10142,0.373251 0.15216,0.05322 0.29634,0.1412 0.45648,0.159655 0.64535,0.07438 1.66073,-0.111866 2.22036,-0.228976 1.80166,-0.377021 3.55171,-0.954826 5.11364,-1.950537 0.10637,-0.0703 2.50471,-1.652405 2.78206,-1.845583 0.34393,-0.239559 0.66088,-0.517856 1.01433,-0.743138 0.68257,-0.435046 1.4618,-0.593979 2.2517,-0.693486 0.29174,-0.03541 0.58393,-0.06729 0.87522,-0.106217 0.27893,-0.03728 0.55414,-0.110866 0.83532,-0.122378 0.36436,-0.01492 0.72854,0.03676 1.09315,0.04341 1.30756,0.02384 2.61398,-0.03906 3.914,-0.1822 0.48337,-0.07354 0.96984,-0.129001 1.4501,-0.220615 1.33368,-0.254413 2.62552,-0.674907 3.92733,-1.050005 0.34062,-0.09815 0.68815,-0.172577 1.0257,-0.280839 0.38196,-0.122507 0.75403,-0.273934 1.13104,-0.4109 0.38611,-0.150585 0.78171,-0.278792 1.15832,-0.451755 0.97477,-0.44767 1.24086,-0.696442 2.15202,-1.261489 1.06934,-0.663135 2.17733,-1.244261 3.00209,-2.231107 0.29044,-0.378089 0.60375,-0.739674 0.87134,-1.134268 0.88919,-1.311188 1.60109,-3.127849 1.78708,-4.7097 0.0384,-0.326382 0.01,-0.657185 0.0149,-0.985779 -0.22781,-1.861103 -0.58998,-3.729646 -1.46014,-5.410359 -0.41202,-0.602501 -0.58575,-0.898506 -1.09096,-1.452393 -0.23803,-0.260969 -0.50909,-0.490083 -0.75324,-0.745339 -0.80917,-0.845982 -1.49585,-1.776749 -2.0987,-2.780819 -0.30052,-0.394205 -0.57717,-0.807818 -0.90157,-1.182618 -0.66127,-0.764001 -2.21996,-2.296716 -2.95272,-2.887933 -0.68049,-0.549034 -1.38888,-1.067392 -2.13215,-1.527889 -1.23343,-0.764191 -3.04175,-1.575541 -4.37721,-2.20431 -1.11745,-0.413959 -2.01175,-0.63496 -2.96344,-1.331516 -1.23062,-0.900715 -1.74625,-2.46462 -2.85832,-3.480297 -0.71,-0.739841 -1.47428,-1.570191 -2.25317,-2.236293 -0.42734,-0.365458 -0.89961,-0.67529 -1.33634,-1.029467 -0.41055,-0.332944 -0.79216,-0.700691 -1.20467,-1.031208 -0.82625,-0.662035 -1.7168,-1.241163 -2.52926,-1.921386 l -1.13598,-0.933439 c -0.35007,-0.320789 -0.68587,-0.657887 -1.05021,-0.962372 -0.39496,-0.330067 -0.82209,-0.619778 -1.22551,-0.939456 -0.38172,-0.30249 -0.73849,-0.636534 -1.12959,-0.926793 -1.18964,-0.882883 -1.33893,-0.892082 -2.65002,-1.566394 -2.37158,-1.054608 -0.23188,-0.09583 -2.50923,-1.136475 -0.38014,-0.173707 -0.77763,-0.312674 -1.14258,-0.516361 -0.27816,-0.155244 -0.51236,-0.379106 -0.7777,-0.555371 -0.037,-0.02455 -1.39157,-0.856573 -1.49643,-0.921012 -0.991,-0.590713 -1.97114,-1.20914 -2.99546,-1.741536 -0.42236,-0.219525 -0.86555,-0.398098 -1.28378,-0.6254 -3.99558,-2.1715561 1.80032,0.772391 -2.73413,-1.492822 -0.57159,-0.2611521 -1.13129,-0.5501101 -1.71479,-0.7834561 -1.28711,-0.514726 -2.50828,-0.879826 -3.86729,-1.149966 -1.476336,-0.293462 -1.735178,-0.135595 -3.103296,-0.577056 -0.443058,-0.142964 -0.859649,-0.35771 -1.289473,-0.536565 -1.732499,-0.570904 -3.513156,-1.271218 -5.355304,-1.371897 -0.558723,-0.03054 -1.546154,0.08501 -2.124517,0.141811 -0.180813,-0.0059 -0.361595,-0.01269 -0.542435,-0.01761 -0.136629,-0.0037 -0.275305,0.01519 -0.409954,-0.0083 -0.131207,-0.02287 -0.25432,-0.07999 -0.378132,-0.129061 -0.699944,-0.277431 -1.371523,-0.624725 -1.989791,-1.055837 -0.285408,-0.130261 -0.5774,-0.246972 -0.856228,-0.390783 -0.803183,-0.414257 -0.815729,-0.562888 -1.707788,-0.898404 -0.903676,-0.339885 -1.875062,-0.502563 -2.829327,-0.320509 -0.41829,-0.343413 -5.274884,5.57211 -4.856594,5.915523 z"
         inkscape:label="midpath"
         sodipodi:nodetypes="cssscsscssscssscsscsssscsssccssscsscssscsscscccsscssscssscssscsscscccsscscsccsscssscscccccscscsscsscssscssscsscssccsscssscscsssccssscssccsscssscscccccssccc" />
      <path
         style="display:inline;opacity:0.743629;mix-blend-mode:normal;fill:url(#linearGradient143);fill-opacity:1;stroke:none;stroke-width:0.165;stroke-opacity:1;filter:url(#filter157)"
         id="path88"
         d="m 180.64212,2.5921269 c -2.43174,-1.70931231 -7.22573,-2.10311052 -8.48097,-2.18173786 -0.65275,-0.0408881 -6.66484,2.80353086 -7.2432,3.10891586 -1.06923,0.5645717 -3.72902,8.6702591 -4.65571,11.0216811 -1.03414,2.62407 -5.76912,11.028883 -5.13843,14.175372 1.80567,2.457913 3.51499,1.589325 4.55295,2.684201 0.8847,0.933204 0.88486,1.38565 -1.08667,2.861446 -0.52382,0.97286 -0.57931,1.573609 -1.29436,2.395391 -0.29619,0.340413 -1.2936,3.646416 -1.57659,3.997878 -0.53096,0.885126 -1.58801,2.894005 -1.75163,3.910695 -0.18908,1.17492 -1.3961,2.562542 -1.97789,4.194579 -0.002,1.087895 -0.32125,0.640945 -0.20259,2.143211 0.0451,0.57129 -0.35126,0.801115 -0.63279,1.971821 -0.71674,1.751758 -0.19636,1.987869 -1.18444,2.758751 -0.46384,0.361874 -0.88408,0.776394 -1.32575,1.165019 -1.77295,1.560052 -0.91909,0.758142 -2.65209,2.513259 -0.98426,1.187098 -1.80162,2.494039 -2.46404,3.884586 -0.14665,0.307834 -0.26054,0.630393 -0.40203,0.94063 -0.36672,0.80408 -0.49344,1.000326 -0.92085,1.779006 -1.1005,1.021625 -2.25343,1.996022 -3.2373,3.136183 -0.56225,0.651581 -1.21435,1.561589 -1.72634,2.255004 -0.27362,0.41571 -0.54665,0.831813 -0.82086,1.247132 -0.84004,1.27231 -1.06335,1.506566 -1.71581,2.865278 -0.63733,1.327214 -1.16596,2.752262 -1.6364,4.14631 -0.13247,0.425709 -0.24808,0.857041 -0.39743,1.277125 -0.79666,2.240666 -0.26497,0.376309 -1.02884,2.691646 -0.11983,0.363199 -0.79411,2.688846 -0.88105,3.057302 -0.12105,0.513062 -0.19935,1.035278 -0.29902,1.552917 -0.071,0.467309 -0.14987,0.933484 -0.21293,1.401929 -0.0536,0.398261 -0.0838,0.799438 -0.137,1.197747 -0.0466,0.348713 -0.1083,0.695241 -0.16245,1.042864 0.57012,1.406858 1.83909,1.21803 4.63101,1.020023 2.95745,-0.209747 4.26311,-0.152936 5.40453,-1.009535 1.11873,-0.839571 0.64426,-0.605897 0.91276,-1.97967 0.31011,-1.629179 0.53555,-3.224752 0.97099,-4.830302 0.0975,-0.359666 0.17926,-0.725537 0.31413,-1.072938 0.13176,-0.3394 0.32184,-0.653169 0.48276,-0.979752 1.62696,-3.059822 -0.52827,1.020839 1.13276,-2.217788 0.50905,-0.992531 0.60361,-1.085654 1.14549,-2.092171 0.18232,-0.338651 0.32756,-0.698024 0.53137,-1.024197 0.21722,-0.347639 0.48529,-0.660789 0.72793,-0.991182 0.52734,-0.714145 1.07384,-1.432219 1.55982,-2.176201 0.86178,-1.319318 1.56053,-2.73594 2.26511,-4.142605 0.13923,-0.138361 0.26759,-0.288597 0.4177,-0.415086 0.37716,-0.317831 1.20418,-0.853652 1.55295,-1.111052 1.17107,-0.86429 2.27175,-1.823378 3.24538,-2.90768 2.20053,-2.732588 -0.19102,0.243297 1.99931,-2.501017 0.27672,-0.346699 0.5659,-0.683622 0.83365,-1.037285 0.24517,-0.323832 0.45952,-0.670232 0.70443,-0.994265 0.61804,-0.817721 0.84619,-1.017926 1.57252,-1.795539 0.30944,-0.350594 0.62989,-0.691766 0.92831,-1.051782 0.25604,-0.308888 0.48819,-0.636836 0.73416,-0.953807 0.98327,-1.267119 2.01109,-2.500837 2.92984,-3.81689 0.68739,-0.915249 1.14963,-1.477687 1.73274,-2.491139 0.2689,-0.467347 0.47732,-0.967129 0.72913,-1.443895 0.25963,-0.491564 0.56219,-0.960517 0.80495,-1.460624 0.0298,-0.06129 1.12606,-2.673858 1.19754,-2.844065 0.90915,-2.612422 0.0296,0.0091 0.7779,-2.495381 0.57947,-1.475837 0.8303,-2.940503 1.10894,-4.475747 0.002,-0.01193 0.0206,0.01439 0.0265,0.02503 1.39226,-1.886789 3.4172,-6.382283 4.35536,-8.294593 3.76054,-5.403621 6.67848,-8.571268 7.00176,-13.105916 0.11815,-1.657222 1.03478,-6.587605 1.12527,-7.448868 -0.5515,-1.684975 -0.34634,-4.7297848 -3.16449,-7.0802221 z"
         inkscape:label="rightpath"
         sodipodi:nodetypes="cssscscscscscsscsscscssccsscsscssccscssscscsscssscsscssccscccssc" />
      <path
         style="display:inline;opacity:0.733489;mix-blend-mode:normal;fill:#4c1b0c;fill-opacity:0.44392;stroke:none;stroke-width:0.165;stroke-opacity:1;filter:url(#filter141)"
         id="path89"
         d="m 170.35213,97.478944 c -1.08882,-0.233061 -2.19505,-0.422899 -3.31093,-0.454128 -1.06392,-0.02977 -1.85946,0.0339 -2.93501,0.08833 -1.78983,0.103915 -3.55258,0.490254 -5.24251,1.084027 -1.89002,0.664077 -0.89479,0.441047 -2.61157,1.09365 -0.30211,0.114842 -0.61699,0.192783 -0.92548,0.289176 0.50142,0.08176 -1.93935,0.281302 -1.45065,0.242324 3.43705,-0.274138 0.6061,-0.07187 -2.28053,-0.38164 -1.05106,-0.112795 -3.47489,-0.829205 -4.294,-1.052055 -0.98868,-0.141645 -1.96965,-0.356058 -2.96606,-0.424934 -3.226,-0.222994 -7.12962,0.188375 -9.94773,1.917345 -0.38922,0.238791 -0.71733,0.565231 -1.07599,0.847851 -0.30115,0.15292 -0.57938,0.3636 -0.90345,0.45876 -0.49056,0.14405 -1.33976,0.0126 -1.79936,-0.0989 -0.46857,-0.11366 -1.1897,0.0228 -1.3847,-0.41815 -0.14874,-0.33635 1.23572,-0.30929 0.95694,-0.54915 -0.52431,-0.451129 -1.35966,-0.254866 -2.03949,-0.382295 -0.7729,-0.106783 -1.54868,-0.194461 -2.3187,-0.320344 -2.1004,-0.343379 -3.37198,-0.723482 -5.51885,-0.866857 -1.88584,-0.125944 -3.72717,-5.29e-4 -5.59802,0.216995 -0.78676,0.09149 -1.56661,0.234948 -2.34992,0.352423 -0.51251,0.06389 -2.90167,0.38422 -3.52103,0.381473 -0.46676,-0.0021 -0.92804,-0.101245 -1.39133,-0.158075 -0.47098,-0.05777 -0.9409,-0.123817 -1.41134,-0.185727 -0.51257,-0.08442 -1.02247,-0.186973 -1.53769,-0.253264 -0.47797,-0.0615 -0.95993,-0.08656 -1.43989,-0.129845 -0.51016,-0.0772 -1.02098,-0.150183 -1.53049,-0.231584 -1.41625,-0.226267 -1.554835,-0.311193 -2.965374,-0.390996 -0.438891,-0.02484 -0.879435,-0.0019 -1.318612,-0.02101 -1.082067,-0.04713 -1.415886,-0.112273 -2.489869,-0.248883 -0.431234,-0.07107 -0.874731,-0.08881 -1.293704,-0.213215 -2.614092,-0.776184 -0.708933,-0.667668 -3.593362,-1.153914 -1.169906,-0.19722 -2.783838,-0.228925 -3.975291,-0.166727 -0.579913,0.03027 -1.155615,0.115848 -1.733423,0.173773 -1.070959,0.08302 -2.230276,0.718151 -3.31978,0.611839 -0.35393,-0.03453 -0.689184,-0.176562 -1.037132,-0.25 -1.106718,-0.23359 -1.279924,-0.228925 -2.422358,-0.36848 -1.754452,-0.209449 -3.533995,-0.0382 -5.293834,-0.181282 -0.539866,-0.04389 -0.76136,0.119148 -1.233854,-0.17004 -0.39275,-0.24038 -1.294661,-0.225295 -1.748116,-0.305376 -0.424022,-0.07488 -1.866141,-0.06902 -1.86857,-0.06903 -2.472729,-0.135419 -3.173743,-0.09159 -5.647007,-0.227251 -0.661236,-0.03627 -1.321708,-0.11064 -1.983912,-0.104973 -0.648078,0.0056 -2.887152,0.241123 -3.564665,0.308187 -1.383207,0.108571 -2.689103,0.57401 -4.0234,0.909388 -0.314362,0.07902 -0.626938,0.172998 -0.948335,0.215083 -0.659059,0.0863 -1.453163,-0.006 -2.098149,-0.04932 -2.540465,-0.133863 -0.26321,0.04803 -3.287204,-0.426331 -0.700238,-0.109844 -1.406028,-0.180792 -2.108692,-0.273865 -0.804826,-0.106606 -1.604534,-0.259884 -2.413757,-0.325162 -1.994672,-0.160909 -2.847779,-0.04149 -4.832934,0.07582 -2.213812,0.386234 -2.010434,0.296265 -4.09737,0.8616 -1.487791,0.403029 -1.971929,0.499208 -3.281571,1.229818 -0.685345,0.382333 -1.438733,0.977529 -2.0715,1.4533 -0.285588,0.124238 -0.556454,0.290201 -0.856768,0.372714 -0.252791,0.06946 -0.525735,0.02543 -0.782628,0.07772 -0.318974,0.06492 -0.627018,0.175523 -0.937772,0.272423 -0.825472,0.25742 -1.119372,0.38137 -1.740086,0.97574 l -0.303563,0.31374 c -0.495854,0.26606 -15.683225,11.1921 3.762731,7.01242 v 0 c 0.146459,0.0315 0.292917,0.0629 0.439376,0.0944 0.572896,0.0332 0.951446,0.0872 1.53227,-0.0217 0.532678,-0.0999 1.374534,-0.38688 1.87675,-0.61957 0.326705,-0.15138 0.626375,-0.35762 0.9549,-0.505 0.205666,-0.0923 0.428202,-0.14102 0.642303,-0.21153 0.505986,0.12256 1.003861,0.27866 1.51275,0.38855 1.382244,0.29847 1.294511,0.20643 2.806065,0.36825 3.9249,0.42018 -0.204058,0.0518 4.117467,0.40977 1.815486,-0.0131 3.117924,0.0448 4.925414,-0.24373 0.550857,-0.0879 3.541985,-0.83919 4.211794,-1.05279 0.503441,-0.16055 0.972954,-0.41925 1.479989,-0.56805 0.375499,-0.11021 0.770588,-0.13704 1.155882,-0.20555 1.018038,-0.14047 1.23987,-0.21041 2.283505,-0.19168 1.857735,0.0333 3.696923,0.45258 5.561076,0.33711 0.336833,-0.0177 1.914436,-0.29697 2.278981,-0.34033 0.489876,-0.0583 0.579482,0.21366 1.737582,-0.14708 0.464929,-0.14482 0.584116,0.14764 1.389198,-0.006 0.697224,-0.0169 0.729565,0.28758 1.519438,0.34121 0.930318,0.17881 1.329619,0.22382 2.263894,0.26301 1.526125,0.064 3.05548,0.0902 4.582205,0.0426 0.496538,-0.0155 0.978821,-0.17393 1.472266,-0.23139 0.432057,-0.0503 1.257594,0.34108 1.301705,-0.0917 0.04346,-0.42636 0.759185,-0.25663 0.332626,-0.29807 1.320634,-0.13718 -0.684667,0.087 0.582345,-0.0812 0.310238,-0.0412 0.617723,-0.14315 0.930262,-0.12692 1.039926,0.054 1.842074,0.90281 2.819839,1.15057 0.481373,0.14325 0.955773,0.31245 1.444123,0.42974 1.183116,0.28414 2.538124,0.4974 3.753842,0.52248 4.103552,0.0847 0.171894,-0.16315 3.989898,-0.39268 0.486153,-0.0292 0.971719,0.0675 1.457579,0.10123 0.94076,0.0723 1.755357,0.12371 2.690093,0.23824 0.418864,0.0513 0.833186,0.13769 1.252884,0.18168 2.922839,0.30629 -0.347078,-0.11259 2.457391,0.10385 0.363141,0.028 0.721186,0.10255 1.081776,0.15382 2.315383,0.76255 0.111138,0.0658 2.623033,0.76633 0.5487,0.15301 1.08804,0.33906 1.63888,0.48424 0.60407,0.15921 1.22331,0.25856 1.82444,0.42856 1.22633,0.34679 2.39314,0.88691 3.64057,1.16771 1.87388,0.56316 2.75662,0.90103 4.77074,1.1714 2.31591,0.31089 3.85368,0.27361 6.19434,0.0433 0.96513,-0.095 1.91648,-0.30089 2.8791,-0.41863 0.82316,-0.10068 1.65107,-0.15763 2.47661,-0.23644 0.76269,-0.10302 1.52366,-0.21956 2.28806,-0.30906 1.56277,-0.18298 3.13755,-0.2704 4.69291,-0.5083 0.50023,-0.0765 0.96438,-0.30951 1.45535,-0.43211 0.42554,-0.10626 1.85873,-0.37636 2.34128,-0.35337 0.36195,0.0173 0.70985,0.14603 1.06477,0.21904 1.38697,0.54032 1.87008,0.799 3.44044,1.06169 3.52763,0.59009 7.11713,0.23969 10.526,-0.79 0.66915,-0.26988 1.32558,-0.57373 2.00745,-0.80964 0.49314,-0.1706 1.30802,0.0728 1.51141,-0.40776 0.163,-0.38513 1.83378,-0.3659 2.24672,-0.43207 2.14981,-0.34449 0.91846,0.19886 3.07714,-0.14845 1.49053,-0.23951 3.00802,-0.42152 4.48134,-0.7558 1.42097,-0.3224 2.79071,-0.81766 4.15597,-1.31826 1.04739,-0.38732 1.08713,-0.41187 2.09728,-0.75007 0.77378,-0.25907 1.4913,-0.42547 2.24289,-0.77438 1.3938,-0.64703 1.18099,-1.18676 2.96875,-2.46836 0.5788,-2.42841 -0.22969,-4.558347 -5.1453,-5.203833 z"
         inkscape:label="groundpath"
         sodipodi:nodetypes="sscsscsscsscsssscsssccscscssccssscsscssscsccsscssscsscsscccssccsccssccssccccsccsssscsscscccscccssscscscsssccscssscscssccs" />
    </g>
  </g>
  <g
     inkscape:label="ascii"
     inkscape:groupmode="layer"
     id="layer1"
     transform="matrix(4,0,0,4,-82.062937,-84.174992)">
    <text
       xml:space="preserve"
       style="font-style:normal;font-variant:normal;font-weight:normal;font-stretch:normal;font-size:3.175px;font-family:'Adwaita Mono';-inkscape-font-specification:'Adwaita Mono, Normal';font-variant-ligatures:normal;font-variant-caps:normal;font-variant-numeric:normal;font-variant-east-asian:normal;writing-mode:lr-tb;direction:ltr;display:inline;opacity:1;fill:url(#linearGradient74);fill-opacity:1;stroke:none;stroke-width:0.165;stroke-opacity:1"
       x="24.079893"
       y="25.925104"
       id="text1"
       inkscape:label="art"><tspan
         sodipodi:role="line"
         id="tspan1"
         style="font-style:normal;font-variant:normal;font-weight:normal;font-stretch:normal;font-size:3.175px;font-family:'Adwaita Mono';-inkscape-font-specification:'Adwaita Mono, Normal';font-variant-ligatures:normal;font-variant-caps:normal;font-variant-numeric:normal;font-variant-east-asian:normal;fill:url(#linearGradient74);fill-opacity:1;stroke:none;stroke-width:0.165;stroke-opacity:1"
         x="24.079893"
         y="25.925104">  ` : | | | |:  ||  :     `  :  |  |+|: | : : :|   .        `              . </tspan><tspan
         sodipodi:role="line"
         style="font-style:normal;font-variant:normal;font-weight:normal;font-stretch:normal;font-size:3.175px;font-family:'Adwaita Mono';-inkscape-font-specification:'Adwaita Mono, Normal';font-variant-ligatures:normal;font-variant-caps:normal;font-variant-numeric:normal;font-variant-east-asian:normal;fill:url(#linearGradient74);fill-opacity:1;stroke:none;stroke-width:0.165;stroke-opacity:1"
         x="24.079893"
         y="29.893854"
         id="tspan2">      ` : | :|  ||  |:  :    `  |  | :| : | : |:   |  .                    : </tspan><tspan
         sodipodi:role="line"
         style="font-style:normal;font-variant:normal;font-weight:normal;font-stretch:normal;font-size:3.175px;font-family:'Adwaita Mono';-inkscape-font-specification:'Adwaita Mono, Normal';font-variant-ligatures:normal;font-variant-caps:normal;font-variant-numeric:normal;font-variant-east-asian:normal;fill:url(#linearGradient74);fill-opacity:1;stroke:none;stroke-width:0.165;stroke-opacity:1"
         x="24.079893"
         y="33.862602"
         id="tspan3">         .' ':  ||  |:  |  '       ` || | : | |: : |   .  `           .   :. </tspan><tspan
         sodipodi:role="line"
         style="font-style:normal;font-variant:normal;font-weight:normal;font-stretch:normal;font-size:3.175px;font-family:'Adwaita Mono';-inkscape-font-specification:'Adwaita Mono, Normal';font-variant-ligatures:normal;font-variant-caps:normal;font-variant-numeric:normal;font-variant-east-asian:normal;fill:url(#linearGradient74);fill-opacity:1;stroke:none;stroke-width:0.165;stroke-opacity:1"
         x="24.079893"
         y="37.831352"
         id="tspan4">                `'  ||  |  ' |   *    ` : | | :| |*|  :   :               :| </tspan><tspan
         sodipodi:role="line"
         style="font-style:normal;font-variant:normal;font-weight:normal;font-stretch:normal;font-size:3.175px;font-family:'Adwaita Mono';-inkscape-font-specification:'Adwaita Mono, Normal';font-variant-ligatures:normal;font-variant-caps:normal;font-variant-numeric:normal;font-variant-east-asian:normal;fill:url(#linearGradient74);fill-opacity:1;stroke:none;stroke-width:0.165;stroke-opacity:1"
         x="24.079893"
         y="41.800102"
         id="tspan5">        *    *       `  |  : :  |  .      ` ' :| | :| . : :         *   :.|| </tspan><tspan
         sodipodi:role="line"
         style="font-style:normal;font-variant:normal;font-weight:normal;font-stretch:normal;font-size:3.175px;font-family:'Adwaita Mono';-inkscape-font-specification:'Adwaita Mono, Normal';font-variant-ligatures:normal;font-variant-caps:normal;font-variant-numeric:normal;font-variant-east-asian:normal;fill:url(#linearGradient74);fill-opacity:1;stroke:none;stroke-width:0.165;stroke-opacity:1"
         x="24.079893"
         y="45.768852"
         id="tspan6">             .`            | |  |  : .:|       ` | || | : |: |          | || </tspan><tspan
         sodipodi:role="line"
         style="font-style:normal;font-variant:normal;font-weight:normal;font-stretch:normal;font-size:3.175px;font-family:'Adwaita Mono';-inkscape-font-specification:'Adwaita Mono, Normal';font-variant-ligatures:normal;font-variant-caps:normal;font-variant-numeric:normal;font-variant-east-asian:normal;fill:url(#linearGradient74);fill-opacity:1;stroke:none;stroke-width:0.165;stroke-opacity:1"
         x="24.079893"
         y="49.737602"
         id="tspan7">      '          .         + `  |  :  .: .         '| | : :| :    .   |:| || </tspan><tspan
         sodipodi:role="line"
         style="font-style:normal;font-variant:normal;font-weight:normal;font-stretch:normal;font-size:3.175px;font-family:'Adwaita Mono';-inkscape-font-specification:'Adwaita Mono, Normal';font-variant-ligatures:normal;font-variant-caps:normal;font-variant-numeric:normal;font-variant-east-asian:normal;fill:url(#linearGradient74);fill-opacity:1;stroke:none;stroke-width:0.165;stroke-opacity:1"
         x="24.079893"
         y="53.706352"
         id="tspan8">         .                 .    ` *|  || :       `    | | :| | :      |:| |  </tspan><tspan
         sodipodi:role="line"
         style="font-style:normal;font-variant:normal;font-weight:normal;font-stretch:normal;font-size:3.175px;font-family:'Adwaita Mono';-inkscape-font-specification:'Adwaita Mono, Normal';font-variant-ligatures:normal;font-variant-caps:normal;font-variant-numeric:normal;font-variant-east-asian:normal;fill:url(#linearGradient74);fill-opacity:1;stroke:none;stroke-width:0.165;stroke-opacity:1"
         x="24.079893"
         y="57.675102"
         id="tspan9"> .                .          .        || |.: *          | || : :     :|||    </tspan><tspan
         sodipodi:role="line"
         style="font-style:normal;font-variant:normal;font-weight:normal;font-stretch:normal;font-size:3.175px;font-family:'Adwaita Mono';-inkscape-font-specification:'Adwaita Mono, Normal';font-variant-ligatures:normal;font-variant-caps:normal;font-variant-numeric:normal;font-variant-east-asian:normal;fill:url(#linearGradient74);fill-opacity:1;stroke:none;stroke-width:0.165;stroke-opacity:1"
         x="24.079893"
         y="61.643852"
         id="tspan10">        .            .   . *    .   .  ` |||.  +        + '| |||  .  ||`     </tspan><tspan
         sodipodi:role="line"
         style="font-style:normal;font-variant:normal;font-weight:normal;font-stretch:normal;font-size:3.175px;font-family:'Adwaita Mono';-inkscape-font-specification:'Adwaita Mono, Normal';font-variant-ligatures:normal;font-variant-caps:normal;font-variant-numeric:normal;font-variant-east-asian:normal;fill:url(#linearGradient74);fill-opacity:1;stroke:none;stroke-width:0.165;stroke-opacity:1"
         x="24.079893"
         y="65.612602"
         id="tspan11">     .             *              .     +:`|!             . ||||  :.||`      </tspan><tspan
         sodipodi:role="line"
         style="font-style:normal;font-variant:normal;font-weight:normal;font-stretch:normal;font-size:3.175px;font-family:'Adwaita Mono';-inkscape-font-specification:'Adwaita Mono, Normal';font-variant-ligatures:normal;font-variant-caps:normal;font-variant-numeric:normal;font-variant-east-asian:normal;fill:url(#linearGradient74);fill-opacity:1;stroke:none;stroke-width:0.165;stroke-opacity:1"
         x="24.079893"
         y="69.581352"
         id="tspan12"> +                      .                ..!|*          . | :`||+ |||`       </tspan><tspan
         sodipodi:role="line"
         style="font-style:normal;font-variant:normal;font-weight:normal;font-stretch:normal;font-size:3.175px;font-family:'Adwaita Mono';-inkscape-font-specification:'Adwaita Mono, Normal';font-variant-ligatures:normal;font-variant-caps:normal;font-variant-numeric:normal;font-variant-east-asian:normal;fill:url(#linearGradient74);fill-opacity:1;stroke:none;stroke-width:0.165;stroke-opacity:1"
         x="24.079893"
         y="73.550102"
         id="tspan13">     .                         +      : |||`        .| :| | | |.| ||`     .  </tspan><tspan
         sodipodi:role="line"
         style="font-style:normal;font-variant:normal;font-weight:normal;font-stretch:normal;font-size:3.175px;font-family:'Adwaita Mono';-inkscape-font-specification:'Adwaita Mono, Normal';font-variant-ligatures:normal;font-variant-caps:normal;font-variant-numeric:normal;font-variant-east-asian:normal;fill:url(#linearGradient74);fill-opacity:1;stroke:none;stroke-width:0.165;stroke-opacity:1"
         x="24.079893"
         y="77.518852"
         id="tspan14">       *     +   '               +  :|| |`     :.+. || || | |:`|| `          </tspan><tspan
         sodipodi:role="line"
         style="font-style:normal;font-variant:normal;font-weight:normal;font-stretch:normal;font-size:3.175px;font-family:'Adwaita Mono';-inkscape-font-specification:'Adwaita Mono, Normal';font-variant-ligatures:normal;font-variant-caps:normal;font-variant-numeric:normal;font-variant-east-asian:normal;fill:url(#linearGradient74);fill-opacity:1;stroke:none;stroke-width:0.165;stroke-opacity:1"
         x="24.079893"
         y="81.487602"
         id="tspan15">                            .      .||` .    ..|| | |: '` `| | |`  +         </tspan><tspan
         sodipodi:role="line"
         style="font-style:normal;font-variant:normal;font-weight:normal;font-stretch:normal;font-size:3.175px;font-family:'Adwaita Mono';-inkscape-font-specification:'Adwaita Mono, Normal';font-variant-ligatures:normal;font-variant-caps:normal;font-variant-numeric:normal;font-variant-east-asian:normal;fill:url(#linearGradient74);fill-opacity:1;stroke:none;stroke-width:0.165;stroke-opacity:1"
         x="24.079893"
         y="85.456352"
         id="tspan16">  .       +++                      ||        !|!: `       :| |               </tspan><tspan
         sodipodi:role="line"
         style="font-style:normal;font-variant:normal;font-weight:normal;font-stretch:normal;font-size:3.175px;font-family:'Adwaita Mono';-inkscape-font-specification:'Adwaita Mono, Normal';font-variant-ligatures:normal;font-variant-caps:normal;font-variant-numeric:normal;font-variant-east-asian:normal;fill:url(#linearGradient74);fill-opacity:1;stroke:none;stroke-width:0.165;stroke-opacity:1"
         x="24.079893"
         y="89.425102"
         id="tspan17">              +         .      .    | .      `|||.:      .||    .      .    `</tspan><tspan
         sodipodi:role="line"
         style="font-style:normal;font-variant:normal;font-weight:normal;font-stretch:normal;font-size:3.175px;font-family:'Adwaita Mono';-inkscape-font-specification:'Adwaita Mono, Normal';font-variant-ligatures:normal;font-variant-caps:normal;font-variant-numeric:normal;font-variant-east-asian:normal;fill:url(#linearGradient74);fill-opacity:1;stroke:none;stroke-width:0.165;stroke-opacity:1"
         x="24.079893"
         y="93.393852"
         id="tspan18">          '                           `|.   .  `:|||   + ||'     `           </tspan><tspan
         sodipodi:role="line"
         style="font-style:normal;font-variant:normal;font-weight:normal;font-stretch:normal;font-size:3.175px;font-family:'Adwaita Mono';-inkscape-font-specification:'Adwaita Mono, Normal';font-variant-ligatures:normal;font-variant-caps:normal;font-variant-numeric:normal;font-variant-east-asian:normal;fill:url(#linearGradient74);fill-opacity:1;stroke:none;stroke-width:0.165;stroke-opacity:1"
         x="24.079893"
         y="97.362602"
         id="tspan19">  __    +      *                         `'       `'|.    `:                 </tspan><tspan
         sodipodi:role="line"
         style="font-style:normal;font-variant:normal;font-weight:normal;font-stretch:normal;font-size:3.175px;font-family:'Adwaita Mono';-inkscape-font-specification:'Adwaita Mono, Normal';font-variant-ligatures:normal;font-variant-caps:normal;font-variant-numeric:normal;font-variant-east-asian:normal;fill:url(#linearGradient74);fill-opacity:1;stroke:none;stroke-width:0.165;stroke-opacity:1"
         x="24.079893"
         y="101.33135"
         id="tspan20">&quot;'  `---&quot;&quot;&quot;----....____,..^---`^``----.,.___          `.    `.  .    ____,.,-</tspan><tspan
         sodipodi:role="line"
         style="font-style:normal;font-variant:normal;font-weight:normal;font-stretch:normal;font-size:3.175px;font-family:'Adwaita Mono';-inkscape-font-specification:'Adwaita Mono, Normal';font-variant-ligatures:normal;font-variant-caps:normal;font-variant-numeric:normal;font-variant-east-asian:normal;fill:url(#linearGradient74);fill-opacity:1;stroke:none;stroke-width:0.165;stroke-opacity:1"
         x="24.079893"
         y="105.3001"
         id="tspan21">    ___,--'&quot;&quot;`---&quot;'   ^  ^ ^        ^       &quot;&quot;&quot;'---,..___ __,..---&quot;&quot;'        </tspan><tspan
         sodipodi:role="line"
         style="font-style:normal;font-variant:normal;font-weight:normal;font-stretch:normal;font-size:3.175px;font-family:'Adwaita Mono';-inkscape-font-specification:'Adwaita Mono, Normal';font-variant-ligatures:normal;font-variant-caps:normal;font-variant-numeric:normal;font-variant-east-asian:normal;fill:url(#linearGradient74);fill-opacity:1;stroke:none;stroke-width:0.165;stroke-opacity:1"
         x="24.079893"
         y="109.26885"
         id="tspan22">--&quot;'                           ^                         ``--..,__ </tspan><tspan
         sodipodi:role="line"
         style="font-style:normal;font-variant:normal;font-weight:normal;font-stretch:normal;font-size:3.175px;font-family:'Adwaita Mono';-inkscape-font-specification:'Adwaita Mono, Normal';font-variant-ligatures:normal;font-variant-caps:normal;font-variant-numeric:normal;font-variant-east-asian:normal;fill:url(#linearGradient74);fill-opacity:1;stroke:none;stroke-width:0.165;stroke-opacity:1"
         x="24.079893"
         y="113.2376"
         id="tspan25">   </tspan><tspan
         sodipodi:role="line"
         style="font-style:normal;font-variant:normal;font-weight:normal;font-stretch:normal;font-size:3.175px;font-family:'Adwaita Mono';-inkscape-font-specification:'Adwaita Mono, Normal';font-variant-ligatures:normal;font-variant-caps:normal;font-variant-numeric:normal;font-variant-east-asian:normal;fill:url(#linearGradient74);fill-opacity:1;stroke:none;stroke-width:0.165;stroke-opacity:1"
         x="24.079893"
         y="117.20635"
         id="tspan23" /></text>
    <text
       xml:space="preserve"
       style="font-style:normal;font-variant:normal;font-weight:normal;font-stretch:normal;font-size:1.41111px;font-family:'Adwaita Mono';-inkscape-font-specification:'Adwaita Mono, Normal';font-variant-ligatures:normal;font-variant-caps:normal;font-variant-numeric:normal;font-variant-east-asian:normal;writing-mode:lr-tb;direction:ltr;display:inline;opacity:1;fill:url(#linearGradient75);fill-opacity:1;stroke:none;stroke-width:0.165;stroke-opacity:1"
       x="24.250399"
       y="113.67636"
       id="text1-2"
       inkscape:label="credits"
       transform="translate(-0.01227455,-3.2331771e-4)"><tspan
         sodipodi:role="line"
         style="font-style:normal;font-variant:normal;font-weight:normal;font-stretch:normal;font-size:1.41111px;font-family:'Adwaita Mono';-inkscape-font-specification:'Adwaita Mono, Normal';font-variant-ligatures:normal;font-variant-caps:normal;font-variant-numeric:normal;font-variant-east-asian:normal;fill:url(#linearGradient75);fill-opacity:1;stroke:none;stroke-width:0.165;stroke-opacity:1"
         x="24.250399"
         y="113.67636"
         id="tspan24-7">Northern Lights - D. Rice</tspan><tspan
         sodipodi:role="line"
         style="font-style:normal;font-variant:normal;font-weight:normal;font-stretch:normal;font-size:1.41111px;font-family:'Adwaita Mono';-inkscape-font-specification:'Adwaita Mono, Normal';font-variant-ligatures:normal;font-variant-caps:normal;font-variant-numeric:normal;font-variant-east-asian:normal;fill:url(#linearGradient75);fill-opacity:1;stroke:none;stroke-width:0.165;stroke-opacity:1"
         x="24.250399"
         y="115.44025"
         id="tspan75">SVG by Kurt B</tspan><tspan
         sodipodi:role="line"
         style="font-style:normal;font-variant:normal;font-weight:normal;font-stretch:normal;font-size:1.41111px;font-family:'Adwaita Mono';-inkscape-font-specification:'Adwaita Mono, Normal';font-variant-ligatures:normal;font-variant-caps:normal;font-variant-numeric:normal;font-variant-east-asian:normal;fill:url(#linearGradient75);fill-opacity:1;stroke:none;stroke-width:0.165;stroke-opacity:1"
         x="24.250399"
         y="117.20414"
         id="tspan25-0">https://www.asciiart.eu/space/other   </tspan><tspan
         sodipodi:role="line"
         style="font-style:normal;font-variant:normal;font-weight:normal;font-stretch:normal;font-size:1.41111px;font-family:'Adwaita Mono';-inkscape-font-specification:'Adwaita Mono, Normal';font-variant-ligatures:normal;font-variant-caps:normal;font-variant-numeric:normal;font-variant-east-asian:normal;fill:url(#linearGradient75);fill-opacity:1;stroke:none;stroke-width:0.165;stroke-opacity:1"
         x="24.250399"
         y="118.96803"
         id="tspan23-9" /></text>
  </g>
</svg>
